<?xml version="1.0" encoding="UTF-8" standalone="no"?> <!-- Created with Vectornator for iOS (http://vectornator.io/) --><!DOCTYPE svg PUBLIC "-//W3C//DTD SVG 1.1//EN" "http://www.w3.org/Graphics/SVG/1.1/DTD/svg11.dtd">
<svg height="100vh" style="fill-rule:nonzero;clip-rule:evenodd;stroke-linecap:round;stroke-linejoin:round;" version="1.1" viewBox="0 0 1920 6480" width="100%" xmlSpace="preserve" xmlns="http://www.w3.org/2000/svg" xmlnsXlink="http://www.w3.org/1999/xlink">
<metadata>
<vectornatorSetting key="IsTimeLapseWatermarkDisabled" value="false"/>
<vectornatorSetting key="UndoHistoryDisabled" value="true"/>
<vectornatorSetting key="VNDimensionsVisible" value="true"/>
<vectornatorSetting key="VNSnapToGuides" value="true"/>
<vectornatorSetting key="WDCMYKEnabledKey" value="false"/>
<vectornatorSetting key="WDDisplayWhiteBackground" value="false"/>
<vectornatorSetting key="WDDynamicGuides" value="false"/>
<vectornatorSetting key="WDGuidesVisible" value="true"/>
<vectornatorSetting key="WDIsolateActiveLayer" value="false"/>
<vectornatorSetting key="WDOutlineMode" value="false"/>
<vectornatorSetting key="WDRulersVisible" value="true"/>
<vectornatorSetting key="WDSnapToEdges" value="false"/>
<vectornatorSetting key="WDSnapToGrid" value="false"/>
<vectornatorSetting key="WDSnapToPoints" value="false"/>
<vectornatorSetting key="WDUnits" value="Points"/>
</metadata>
<defs/>
<g id="Layer 1" >
<path id="path" d="M953.375 651.688C944.409 652.06 937.44 659.628 937.812 668.594L941.344 753.75L799.594 678.312C780.533 668.169 765.227 696.665 784.219 706.938L784.312 707L785.656 707.719L943.406 793.062L943.281 920.312C941.774 922.253 941.369 922.941 940.344 925.594C939.823 927.728 939.81 928.301 939.75 929.344L834.656 1045.94C821.031 1061.05 841.938 1082.42 857.344 1069.12C857.411 1069.07 860.892 1066.04 862.25 1064.84C866.119 1061.44 870.426 1057.61 875.062 1053.44C888.317 1041.51 901.567 1029.2 913.969 1017.12C918.301 1012.91 922.47 1008.76 926.438 1004.75C941.804 989.204 953.87 975.722 961.969 964.688C962.666 963.738 963.109 962.918 963.75 962C980.231 978.824 1068.39 1068.51 1068.62 1068.75C1074.92 1075.14 1085.2 1075.23 1091.59 1068.94C1097.99 1062.64 1098.08 1052.36 1091.78 1045.97C1091.54 1045.72 993.734 946.205 982.906 935.125C979.929 932.078 978.643 930.736 975.781 927.781L975.875 792.062L1134.5 722.375C1154.19 713.724 1141.47 684.162 1121.66 692.531L1121.44 692.625L1121.44 692.594L1119.69 693.375L973.938 754.938L970.281 667.25C969.909 658.284 962.341 651.315 953.375 651.688ZM956.562 1419.69C952.303 1419.64 947.999 1421.22 944.656 1424.56C944.656 1424.56 673.906 1695.25 673.906 1695.25C667.221 1701.93 667.604 1712.45 673.938 1718.78L944.562 1989.47C950.896 1995.8 961.439 1996.18 968.125 1989.5L1238.84 1718.81C1245.53 1712.13 1245.18 1701.62 1238.84 1695.28L968.188 1424.59C965.021 1421.43 960.822 1419.74 956.562 1419.69ZM956.406 1458.75L1204.66 1707.06L956.344 1955.28L708.125 1707.03L956.406 1458.75ZM1040.44 1881.84C1036.01 1881.62 1031.5 1883.16 1028.09 1886.59L959.094 1956.03C941.91 1939.77 889.083 1889.77 888.531 1889.25C881.735 1882.82 870.919 1883.42 864.906 1890.59L751.781 2025.5C742.873 2036.12 750.482 2052.3 764.344 2052.19L1148.69 2049.06C1162.29 2048.95 1169.74 2033.17 1161.19 2022.59L1052.25 1887.84C1049.21 1884.08 1044.87 1882.07 1040.44 1881.84ZM1038.34 1922.38L1114.72 2016.84L799.312 2019.41L878.719 1924.72C896.839 1941.87 947.738 1990.02 948.281 1990.53C954.687 1996.59 964.752 1996.44 970.969 1990.19L1038.34 1922.38ZM950.875 1657.88C920.715 1657.88 896.281 1682.31 896.281 1712.47C896.281 1742.63 920.715 1767.09 950.875 1767.09C981.035 1767.09 1005.5 1742.63 1005.5 1712.47C1005.5 1682.31 981.035 1657.87 950.875 1657.88ZM950.875 1690.38C963.087 1690.38 973 1700.26 973 1712.47C973 1724.68 963.087 1734.59 950.875 1734.59C938.663 1734.59 928.781 1724.68 928.781 1712.47C928.781 1700.26 938.663 1690.37 950.875 1690.38ZM959.969 441.125C898.806 441.125 849.219 490.681 849.219 551.844C849.219 613.007 898.806 662.594 959.969 662.594C1021.13 662.594 1070.72 613.007 1070.72 551.844C1070.72 490.681 1021.13 441.125 959.969 441.125ZM959.969 473.594C1003.18 473.594 1038.22 508.629 1038.22 551.844C1038.22 595.059 1003.18 630.094 959.969 630.094C916.754 630.094 881.719 595.059 881.719 551.844C881.719 508.629 916.754 473.594 959.969 473.594ZM1135.75 1574.41C1132.62 1574.36 1129.44 1575.22 1126.62 1577.06C1126.33 1577.25 978.569 1673.68 978.312 1673.84C1012.3 1652.12 981.195 1671.56 986.625 1671.56C977.651 1671.56 970.375 1678.84 970.375 1687.81C970.375 1696.79 977.651 1704.06 986.625 1704.06C992.068 1704.06 961.242 1723.31 995.812 1701.22C996.126 1701.02 1144.12 1604.44 1144.41 1604.25C1151.92 1599.34 1154.03 1589.29 1149.12 1581.78C1146.06 1577.09 1140.97 1574.49 1135.75 1574.41ZM1153.34 1771.62C1144.38 1772.01 1137.43 1779.6 1137.81 1788.56L1141.34 1870.97L1122.69 1896.5L1122.62 1896.56L1122.22 1897.12C1109.68 1914.23 1134.75 1933.44 1148 1916.88L1151.38 1912.66C1158.02 1930.22 1184.67 1923.59 1182.5 1905.12C1182.6 1905.17 1183.71 1905.62 1183.72 1905.62C1189.47 1907.84 1186.39 1906.72 1189.66 1906.72C1198.63 1906.72 1205.91 1899.47 1205.91 1890.5C1205.91 1881.53 1198.63 1874.25 1189.66 1874.25C1192.92 1874.25 1189.74 1873.11 1195.38 1875.28C1195.4 1875.29 1181.93 1869.66 1173.69 1866.22L1170.28 1787.19C1169.9 1778.22 1162.31 1771.24 1153.34 1771.62ZM993.562 3425.06C992.25 3425.04 990.899 3425.18 989.469 3425.5C988.359 3425.75 987.386 3426.12 986.438 3426.53L607.594 3425.16C598.626 3425.12 591.321 3432.38 591.281 3441.34C591.276 3442.6 590.568 3600.93 590.562 3602.19C590.551 3604.67 591.102 3607.14 592.188 3609.38L655.562 3739.88L657.344 3791.94L641.531 3834.19C640.716 3836.37 640.397 3838.71 640.562 3841.03L644.781 3900.34L631.219 3957.25C628.433 3968.91 638.791 3979.45 650.5 3976.88L742.312 3956.69L877.594 3987.84C886.322 3989.85 895.059 3984.44 897.094 3975.72L902.969 3950.41L906.094 3949.22L918.375 3956.41C920.435 3957.61 922.747 3958.35 925.125 3958.56L941.062 3960L961.875 3988.94C964.272 3992.27 967.852 3994.57 971.875 3995.38L1002.78 4001.59L1025.97 4028.59C1027.63 4030.53 1029.73 4032.06 1032.09 4033.03L1074.5 4050.59C1081.13 4053.34 1088.78 4051.37 1093.31 4045.81C1093.31 4045.82 1093.76 4045.31 1093.97 4045.06C1094.6 4044.33 1095.33 4043.53 1096.16 4042.62C1098.54 4040.04 1101.14 4037.43 1103.84 4035.06C1108.19 4031.25 1112.26 4028.47 1115.47 4027.12C1116.39 4026.74 1117.14 4026.51 1117.66 4026.44C1124.41 4025.44 1132.58 4027.36 1141.03 4031.44C1143.59 4032.67 1145.95 4033.98 1148.19 4035.38C1148.9 4035.82 1151 4037.17 1151.28 4037.34C1151.67 4037.58 1152 4037.79 1152.47 4038.03C1162.69 4043.38 1162.8 4043.41 1171.22 4035.47C1175.64 4031.3 1175.1 4034.1 1176.22 4025.66C1176.26 4025.35 1176.34 4024.32 1176.38 4024C1176.41 4023.61 1176.77 4020.04 1176.97 4018.41C1177.55 4013.56 1178.3 4008.92 1179.31 4004.69C1180.35 4000.36 1181.55 3997.19 1182.72 3994.97C1183.03 3994.97 1183.33 3995 1183.69 3995.03L1207.97 4012.75C1208.86 4013.4 1209.81 4013.95 1210.81 4014.41L1247.38 4031.03L1268.81 4052.75C1274.17 4058.18 1282.58 4059.16 1289.03 4055.09L1325.38 4032.19C1335.54 4025.78 1335.47 4010.95 1325.25 4004.62L1249.97 3958.03L1255.69 3947.88L1267.97 3933.53L1299.09 3909.78C1305.58 3904.83 1307.41 3895.82 1303.34 3888.75L1290 3865.56C1285.55 3857.81 1275.68 3855.12 1267.91 3859.53C1267.8 3859.59 1232.26 3879.68 1215.72 3889.03C1215.67 3888.97 1215.64 3888.9 1215.59 3888.84C1207.21 3878.57 1196.51 3871.11 1183.22 3868.56C1179.13 3867.78 1174.91 3867.53 1170.59 3867.75C1160.86 3868.26 1151.07 3871.07 1141.38 3875.41C1139.62 3876.19 1138.13 3877.05 1136.5 3877.88C1135.15 3877 1133.72 3876.19 1132.47 3875.25C1129.81 3873.25 1127.71 3871.32 1126.38 3869.66C1125.99 3869.18 1125.8 3868.87 1125.62 3868.56C1125.74 3867.73 1125.94 3866.66 1126.22 3865.47C1126.86 3862.79 1127.8 3859.81 1128.91 3857.12C1129.42 3855.87 1129.9 3855.26 1130.41 3854.28C1134.02 3854.32 1149.23 3854.44 1153.72 3854.5C1164.73 3854.64 1172.58 3854.9 1176.31 3855.31C1177.82 3855.48 1179.42 3855.7 1181.09 3856C1185.82 3856.84 1190.98 3858.19 1196.34 3859.88C1199.9 3860.99 1203.33 3862.19 1206.5 3863.41C1207.58 3863.82 1209.86 3864.73 1210.22 3864.88C1210.36 3864.93 1210.37 3864.93 1210.53 3865C1209.91 3864.96 1209.92 3864.96 1216.72 3866.22C1217.92 3866.17 1217.91 3866.19 1217.91 3866.19C1220.51 3865.78 1220.5 3865.78 1220.5 3865.78C1223.21 3864.87 1223.22 3864.88 1223.22 3864.88C1225.78 3863.47 1225.78 3863.44 1225.78 3863.44C1227.96 3861.67 1227.97 3861.69 1227.97 3861.69C1229.66 3859.78 1229.66 3859.78 1229.66 3859.78C1230.87 3857.93 1230.88 3857.94 1230.88 3857.94C1231.67 3856.31 1231.66 3856.3 1231.84 3855.84C1232.75 3852.8 1232.75 3852.79 1232.91 3851.06C1232.96 3849.65 1232.97 3849.67 1232.91 3848.72C1232.55 3846.23 1232.55 3846.22 1232.28 3845.34C1231.92 3844.23 1231.92 3844.25 1231.75 3843.84C1231.52 3843.3 1231.52 3843.28 1231.41 3843.03C1231.3 3842.8 1230.54 3841.23 1230.16 3840.47C1229.52 3839.2 1210.71 3802.42 1207.12 3795.41L1211.84 3749.75C1212.86 3739.87 1204.86 3731.39 1194.94 3731.84C1194.79 3731.85 1185.27 3732.26 1181.56 3732.41C1170.96 3732.83 1159.25 3733.26 1146.81 3733.66C1119.86 3734.51 1093.27 3735.11 1068.44 3735.34C1022.91 3735.78 988.297 3734.87 967.5 3732.53C966.986 3730.79 966.495 3729.36 966 3726.97C965.253 3723.36 964.592 3719.38 964.156 3715.75C963.999 3714.44 963.894 3713.34 963.812 3712.34L1010.19 3580.78L1034.03 3561.47C1039.03 3557.41 1041.16 3550.78 1039.47 3544.56C1039.45 3544.51 1023.35 3486.04 1023.19 3485.44C1018.42 3468.3 1014.47 3454.33 1011.62 3444.59C1010.83 3441.87 1010.22 3440.11 1009.59 3438.41C1008.78 3435.4 1007.34 3432.61 1004.97 3430.5C1004.48 3429.97 1004.18 3429.42 1003.56 3428.91C1000.88 3426.67 997.5 3425.14 993.562 3425.06ZM623.719 3457.72L981.938 3459C984.617 3468.28 987.756 3479.36 991.875 3494.16C992.012 3494.65 1001.47 3529.07 1005.28 3542.91L986.156 3558.41C983.824 3560.3 982.06 3562.82 981.062 3565.66L932.156 3704.47C931.666 3705.86 931.348 3707.31 931.25 3708.78C930.941 3713.41 932.255 3724.38 934.156 3733.56C935.328 3739.22 936.693 3744.17 938.344 3748.25C939.511 3751.13 940.835 3753.66 942.531 3755.91C945.615 3759.99 949.706 3763.04 955.406 3763.91C977.175 3767.22 1016.39 3768.34 1068.75 3767.84C1093.85 3767.6 1120.67 3766.99 1147.84 3766.12C1158.5 3765.79 1168.24 3765.42 1177.59 3765.06L1174.31 3796.88C1173.99 3800.01 1174.56 3803.17 1176 3805.97C1176.02 3806 1180.94 3815.66 1185.09 3823.78C1183.33 3823.49 1181.57 3823.19 1179.88 3823C1174.71 3822.43 1166.26 3822.15 1154.12 3822C1151.95 3821.97 1147.95 3821.94 1143.12 3821.91C1141.99 3821.25 1140.86 3820.77 1139.69 3820.41C1137.08 3819.61 1135.45 3819.57 1132.88 3819.69C1130.73 3819.79 1127.54 3820.11 1122.88 3820.75C1115.64 3821.74 1110.35 3825.87 1105.97 3831.75C1103.25 3835.4 1100.88 3839.82 1098.84 3844.78C1095.15 3853.78 1092.72 3863.96 1093.06 3870.69C1093.42 3877.77 1096.35 3884.12 1101 3889.94C1104.25 3894 1108.29 3897.74 1112.97 3901.25C1116.49 3903.89 1120.16 3906.25 1123.84 3908.38C1125.13 3909.12 1126.34 3909.8 1127.44 3910.38C1128.14 3910.74 1128.68 3911.02 1129.03 3911.19C1134.2 3913.71 1140.33 3913.3 1145.12 3910.12C1145.44 3909.92 1146.27 3909.42 1147.5 3908.72C1149.66 3907.49 1152.05 3906.25 1154.62 3905.09C1160.96 3902.26 1167.13 3900.49 1172.28 3900.22C1174.08 3900.13 1175.68 3900.2 1177.09 3900.47C1181.98 3901.41 1186.46 3904.54 1190.41 3909.38C1191.93 3911.25 1193.26 3913.2 1194.31 3915.09C1194.67 3915.73 1194.94 3916.29 1195.16 3916.75C1195.05 3916.51 1195.16 3916.65 1195.06 3916.44C1192.14 3909.8 1194.03 3914.29 1194.03 3910.75C1194.13 3912.51 1194.13 3912.5 1194.12 3912.5C1195.05 3916.42 1195.06 3916.44 1195.06 3916.44C1197.13 3920.29 1197.13 3920.28 1197.12 3920.28C1199.95 3923.29 1199.94 3923.28 1199.94 3923.28C1202.84 3925.19 1202.84 3925.19 1202.84 3925.19C1205.36 3926.23 1205.34 3926.25 1205.34 3926.25C1207.29 3926.74 1207.31 3926.73 1207.81 3926.81C1208.96 3926.95 1208.98 3926.95 1209.31 3926.97C1213.18 3926.81 1213.18 3926.82 1214.44 3926.47C1216 3925.99 1215.99 3925.98 1216.53 3925.75C1217.23 3925.44 1217.23 3925.45 1217.5 3925.31C1217.71 3925.21 1218.54 3924.76 1218.84 3924.59C1219.07 3924.47 1233.22 3916.46 1246.97 3908.69C1246.07 3909.38 1245.24 3910.17 1244.5 3911.03L1230 3927.91C1229.31 3928.71 1228.68 3929.57 1228.16 3930.5L1214 3955.66C1209.72 3963.25 1212.18 3972.85 1219.59 3977.44L1251.59 3997.25L1225.81 3985.53L1199.78 3966.56C1198.36 3965.53 1196.8 3964.75 1195.12 3964.22C1194.14 3963.91 1192.78 3963.55 1191.09 3963.22C1186.19 3962.26 1181.06 3961.97 1175.78 3962.94C1168.11 3964.34 1161.32 3968.25 1156.66 3975.06C1152.61 3980.98 1149.82 3988.36 1147.72 3997.12C1147.58 3997.72 1147.48 3998.34 1147.34 3998.94C1136.03 3994.6 1124.51 3992.57 1112.91 3994.28C1109.55 3994.78 1106.23 3995.75 1102.94 3997.12C1095.95 4000.05 1089.17 4004.72 1082.41 4010.66C1080.34 4012.47 1078.53 4014.41 1076.62 4016.31L1048.09 4004.5L1023.78 3976.19C1021.42 3973.44 1018.21 3971.56 1014.66 3970.84L984.531 3964.78L963.125 3935.03C960.374 3931.21 956.097 3928.77 951.406 3928.34L931.688 3926.56L915.812 3917.25C911.574 3914.77 906.468 3914.35 901.875 3916.09L883.375 3923.09C878.311 3925.01 874.542 3929.32 873.312 3934.59L869.125 3952.56L746.062 3924.22C743.716 3923.68 741.258 3923.64 738.906 3924.16L668.844 3939.59L677 3905.47C677.386 3903.85 677.525 3902.19 677.406 3900.53L673.219 3842.28L688.906 3800.25C689.65 3798.26 689.979 3796.16 689.906 3794.03L687.906 3735.31C687.829 3733.04 687.274 3730.79 686.281 3728.75L623.062 3598.56C623.096 3591.15 623.602 3483.8 623.719 3457.72ZM1272.5 4010.19L1286.03 4018.56L1282.78 4020.62L1272.5 4010.19ZM610.906 4406.75C601.623 4406.75 593.781 4414.23 593.781 4423.84L593.781 4876.31C593.781 4885.93 601.623 4893.41 610.906 4893.41L1335.81 4893.41C1345.1 4893.41 1352.94 4885.93 1352.94 4876.31L1352.94 4423.84C1352.94 4414.23 1345.1 4406.75 1335.81 4406.75L610.906 4406.75ZM626.281 4439.25L1320.44 4439.25L1320.44 4860.91L626.281 4860.91L626.281 4439.25ZM701.75 4497.59C692.185 4497.59 684.594 4505.36 684.594 4514.75L684.594 4785.41C684.594 4794.79 692.185 4802.56 701.75 4802.56L1244.94 4802.56C1254.5 4802.56 1262.09 4794.79 1262.09 4785.41L1262.09 4514.75C1262.09 4505.36 1254.5 4497.59 1244.94 4497.59L701.75 4497.59ZM717.094 4530.06L1229.59 4530.06L1229.59 4770.06L717.094 4770.06L717.094 4530.06ZM978.062 4873.94C970.508 4874.16 963.908 4879.67 962.562 4887.41C962.321 4888.8 962.386 4886.07 962.312 4890.28C962.308 4890.52 961.448 4978.91 961.188 5005.34L785.188 5004.41C763.596 5004.29 763.316 5036.61 784.906 5036.88L977.062 5039.25C979.36 5039.28 981.54 5038.8 983.531 5037.97L1161.5 5038.94C1170.47 5038.99 1177.79 5031.75 1177.84 5022.78C1177.89 5013.81 1170.66 5006.49 1161.69 5006.44L993.688 5005.53C993.949 4978.97 994.809 4891.03 994.812 4890.84C994.748 4894.55 994.831 4891.6 994.594 4892.97C996.131 4884.13 990.185 4875.69 981.344 4874.16C980.239 4873.96 979.142 4873.91 978.062 4873.94ZM654.938 5578.19C645.592 5578.19 637.813 5585.73 637.812 5595.28L637.812 5993.59C637.812 6003.15 645.592 6010.69 654.938 6010.69L1293.19 6010.69C1302.53 6010.69 1310.31 6003.15 1310.31 5993.59L1310.31 5595.28C1310.31 5585.73 1302.53 5578.19 1293.19 5578.19L654.938 5578.19ZM670.312 5610.69L1277.81 5610.69L1277.81 5978.19L670.312 5978.19L670.312 5610.69ZM652.656 5580.22C647.44 5580.22 642.325 5582.73 639.188 5587.38C634.167 5594.81 636.124 5604.92 643.562 5609.94L966.844 5828.12C972.39 5831.87 979.651 5831.83 985.156 5828.03L1298.09 5611.88C1305.48 5606.77 1307.32 5596.67 1302.22 5589.28C1297.12 5581.9 1287.01 5580.06 1279.62 5585.16L975.812 5794.97L661.75 5583C658.961 5581.12 655.786 5580.22 652.656 5580.22ZM1136.72 2491.47C1131.56 2491.22 1126.47 2493.46 1123.16 2497.69L1086.16 2544.84L1073.12 2542.94L1051.25 2538.28C1050.74 2538.17 1050.23 2538.09 1049.72 2538.03L1018.56 2534.5C1018.32 2534.47 1018.09 2534.42 1017.84 2534.41L984.25 2532.12C983.807 2532.09 983.381 2532.06 982.938 2532.06L945.969 2532.56C945.635 2532.57 945.302 2532.57 944.969 2532.59L917.25 2534.69C916.903 2534.71 916.563 2534.76 916.219 2534.81L873.406 2540.78C872.843 2540.86 872.302 2540.99 871.75 2541.12L840.438 2548.91C831.187 2539.67 806.331 2514.86 806.062 2514.59C801.662 2510.2 795.157 2508.72 789.281 2510.75L667.406 2552.94C657.886 2556.23 653.637 2567.3 658.5 2576.12L680.656 2616.34L655.594 2632.88C654.739 2633.44 653.952 2634.1 653.219 2634.81C653.219 2634.81 622.429 2664.79 622.312 2664.91C621.959 2665.27 621.385 2665.88 620.625 2666.72C619.411 2668.05 618.089 2669.56 616.656 2671.25C612.584 2676.05 608.509 2681.34 604.688 2686.94C601.723 2691.28 599.006 2695.65 596.625 2700.06C591.676 2709.23 587.344 2719.58 583.656 2730.19C582.335 2733.99 581.169 2737.59 580.25 2740.72C579.879 2741.98 579.58 2743.13 579.344 2744.03C579.267 2744.32 579.187 2744.56 579.125 2744.81C578.85 2745.55 578.392 2746.77 578.094 2747.59C576.825 2751.09 575.608 2754.72 574.469 2758.62C572.674 2764.78 571.253 2770.94 570.312 2777.06C569.915 2779.65 569.572 2782.32 569.25 2785.09C568.284 2793.42 567.672 2802.24 567.344 2811.09C567.225 2814.29 567.133 2817.32 567.094 2820.09C567.068 2821.94 567.062 2824.61 567.062 2824.66C567.07 2825.79 567.197 2826.9 567.438 2828L576.906 2871.38C577.111 2872.31 577.414 2873.24 577.781 2874.12L592.5 2909.78C592.958 2910.89 593.561 2911.93 594.25 2912.91L618.969 2948.09C619.518 2948.87 620.135 2949.61 620.812 2950.28L655.25 2984.44C655.579 2984.76 655.925 2985.08 656.281 2985.38L686 3010.22C686.888 3010.96 687.849 3011.59 688.875 3012.12L705.781 3020.97C694.495 3036.62 678.151 3059.3 677.781 3059.81C677.972 3059.58 677.984 3059.58 678.594 3058.91C678.831 3058.65 679.47 3058.15 679.75 3057.91L674.875 3065.19L674.188 3071.81L675.5 3076.72L683.906 3085.03L693.156 3086.12L696 3085.34L695.375 3085.59L693.969 3085.97L693.156 3086.12L692.906 3086.19C689.958 3086.42 689.934 3086.4 688.969 3086.31C687.737 3086.17 687.737 3086.18 687.281 3086.09C686.697 3085.97 686.711 3085.96 686.5 3085.91C687.186 3086.11 811.568 3123.21 811.812 3123.28C818.11 3125.16 824.914 3123.07 829.062 3117.97L864.781 3074.09L877.781 3077.56C878.336 3077.71 878.902 3077.82 879.469 3077.91L906.719 3082.19L942.938 3087.53C943.562 3087.62 944.182 3087.67 944.812 3087.69L981.344 3088.78C981.853 3088.79 982.583 3088.83 983.594 3088.84C988.222 3088.91 993.216 3088.9 997.969 3088.75C1001.17 3088.65 1004.09 3088.48 1006.66 3088.25C1009.52 3087.99 1012.46 3087.72 1015.5 3087.41C1020.04 3086.94 1024.36 3086.45 1029.03 3085.91C1030.04 3085.79 1033.27 3085.42 1033.59 3085.38C1034.42 3085.31 1034.43 3085.29 1034.72 3085.25C1035.1 3085.2 1035.57 3085.13 1035.78 3085.09C1036.03 3085.05 1040.01 3084.36 1041.59 3084.09C1046.5 3083.26 1051.52 3082.44 1056.72 3081.69C1061.52 3080.99 1066.18 3080.35 1070.62 3079.84C1077.82 3079.02 1093.22 3077.38 1099.72 3076.69L1136.97 3115.03C1141.81 3120.03 1149.31 3121.39 1155.59 3118.41L1265.03 3066.5C1272.64 3062.89 1276.23 3054.08 1273.31 3046.19C1273.22 3045.94 1266.34 3027.29 1261.53 3014.28C1265.13 3012.31 1268.79 3010.32 1272.16 3008.38C1273.81 3007.42 1275.41 3006.48 1276.94 3005.56C1277.59 3005.17 1278.25 3004.78 1278.91 3004.38C1283.18 3001.77 1287.39 2998.99 1291.41 2996.22C1292.81 2995.25 1294.11 2994.35 1295.25 2993.53C1295.95 2993.03 1296.46 2992.65 1296.75 2992.44C1297.1 2992.18 1297.42 2991.91 1297.75 2991.62L1322.84 2969.88C1323.58 2969.24 1324.27 2968.54 1324.88 2967.78L1345 2942.72C1350.11 2936.36 1349.71 2927.17 1344.06 2921.28L1253.97 2827.22C1247.61 2820.58 1237.01 2820.56 1230.59 2827.16L1208.78 2849.59L1203.03 2854.09L1201.31 2844.31L1198.16 2810.66L1200.22 2775.78L1202.38 2762.84L1220.19 2778.62C1220.86 2779.26 1227.51 2785.49 1228.38 2786.28C1228.94 2786.8 1229.4 2787.23 1229.78 2787.56C1230.09 2787.83 1230.35 2788.04 1230.66 2788.28C1231.03 2788.58 1231.41 2788.86 1231.91 2789.19C1241.52 2795.57 1242.49 2796.01 1251.72 2787.81C1252.44 2787.18 1247.97 2792 1253.16 2786.34C1253.33 2786.16 1340.25 2690.97 1340.94 2690.22C1346.81 2683.79 1346.55 2673.89 1340.38 2667.75L1321.94 2649.41C1321.68 2649.15 1321.4 2648.89 1321.12 2648.66L1301.09 2631.25C1300.61 2630.83 1300.1 2630.46 1299.56 2630.09L1268.09 2608.75C1267.62 2608.43 1267.13 2608.11 1266.62 2607.84L1252.38 2600.25L1273.31 2563.81C1278.27 2555.19 1274.39 2544.17 1265.12 2540.56L1141.84 2492.56C1140.18 2491.91 1138.44 2491.55 1136.72 2491.47ZM1141.28 2527.22L1235.72 2564L1215.84 2598.56C1211.28 2606.51 1214.19 2616.68 1222.28 2621L1250.69 2636.19L1280.28 2656.25L1299.34 2672.78L1306.44 2679.81C1292.15 2695.46 1254.08 2737.13 1239.88 2752.69L1201.94 2719.06C1192.37 2710.59 1177.21 2715.96 1175.12 2728.56L1168.03 2771.28C1167.94 2771.84 1167.88 2772.4 1167.84 2772.97L1165.66 2809.84C1165.61 2810.68 1165.61 2811.51 1165.69 2812.34L1169.06 2848.25C1169.1 2848.69 1169.17 2849.13 1169.25 2849.56L1175.75 2886.53C1177.88 2898.64 1192.16 2904.08 1201.81 2896.47L1229.59 2874.53C1230.15 2874.09 1230.69 2873.63 1231.19 2873.12L1242.12 2861.88L1310.72 2933.47L1300.47 2946.25L1277.09 2966.56C1276.88 2966.72 1276.73 2966.82 1276.34 2967.09C1275.35 2967.8 1274.21 2968.61 1272.97 2969.47C1269.41 2971.92 1265.65 2974.39 1261.94 2976.66C1261.38 2977 1260.83 2977.33 1260.28 2977.66C1258.89 2978.48 1257.43 2979.34 1255.91 2980.22C1251.16 2982.96 1246.09 2985.74 1240.78 2988.59C1239.07 2989.51 1233.84 2992.29 1233.69 2992.38C1190.04 3016.4 1225.16 2995.82 1225.16 3006.69C1225.16 3009.87 1221.63 2999.63 1226.16 3012.31C1226.19 3012.4 1232.74 3030.19 1237.66 3043.5L1152.19 3084.03L1117.56 3048.34C1114.1 3044.77 1109.17 3042.99 1104.22 3043.5C1104.07 3043.52 1095.83 3044.4 1092.81 3044.72C1084.18 3045.64 1075.37 3046.59 1066.91 3047.56C1062.12 3048.11 1057.14 3048.79 1052.03 3049.53C1046.55 3050.33 1041.27 3051.18 1036.12 3052.06C1034.58 3052.33 1031 3052.94 1030.5 3053.03C1030.3 3053.06 1030.3 3053.06 1030.25 3053.06C1030.24 3053.06 1030.09 3053.09 1030.09 3053.09C1028.5 3053.27 1016.32 3054.67 1012.19 3055.09C1009.29 3055.39 1006.46 3055.66 1003.75 3055.91C1001.89 3056.07 999.591 3056.2 996.969 3056.28C992.788 3056.41 988.268 3056.41 984.094 3056.34C983.569 3056.34 982.288 3056.31 982.219 3056.31L946.844 3055.25L911.594 3050.06L885.438 3045.97L863 3039.97C856.817 3038.32 850.227 3040.44 846.188 3045.41L810.719 3089.03C796.435 3084.77 744.048 3069.15 716.906 3061.06C728.616 3044.83 743.043 3024.85 743.094 3024.78C748.869 3016.76 746.226 3005.46 737.469 3000.88L705.562 2984.16L677.625 2960.91L644.719 2928.22L621.844 2895.69L608.344 2863L599.562 2822.88C599.566 2822.07 599.58 2821.52 599.594 2820.53C599.629 2818 599.704 2815.25 599.812 2812.31C600.112 2804.24 600.674 2796.23 601.531 2788.84C601.808 2786.46 602.103 2784.18 602.438 2782C603.144 2777.4 604.267 2772.59 605.688 2767.72C606.616 2764.53 607.579 2761.57 608.625 2758.69C608.95 2757.79 609.933 2755.24 610.031 2754.97C610.144 2754.65 610.237 2754.38 610.344 2754.03C611.13 2751.46 611.603 2749.82 611.875 2748.56C612.588 2746.21 613.368 2743.65 614.344 2740.84C617.505 2731.75 621.198 2722.95 625.219 2715.5C627.037 2712.13 629.172 2708.71 631.531 2705.25C634.668 2700.65 638.055 2696.27 641.438 2692.28C642.614 2690.89 643.695 2689.65 644.656 2688.59C645.201 2688 645.575 2687.62 645.719 2687.47L674.812 2659.16L711.062 2635.19C718.133 2630.52 720.433 2621.23 716.344 2613.81L696.25 2577.34L790.312 2544.78C800.126 2554.58 823.706 2578.14 823.969 2578.41C828.001 2582.43 833.846 2584.07 839.375 2582.69L878.844 2572.84L920 2567.06L946.625 2565.06L982.625 2564.56L1015.19 2566.81L1045.28 2570.22L1067 2574.84C1067.33 2574.91 1067.66 2574.98 1068 2575.03L1090.72 2578.38C1096.49 2579.22 1102.27 2576.93 1105.88 2572.34L1141.28 2527.22ZM608.312 2740.19C611.673 2745.23 613.188 2741.18 612 2746.69C611.878 2744.95 610.759 2743.86 608.312 2740.19ZM578.938 2745.59C578.271 2748.52 577.918 2750.19 577.625 2751.56C577.585 2750.37 578.005 2748.64 578.938 2745.59ZM1271.09 3008.72C1270.99 3008.98 1266.33 3011.55 1261.5 3014.19C1260.82 3012.36 1260.31 3011.04 1259.81 3009.69C1263.65 3011.08 1271.32 3008.15 1271.09 3008.72ZM1034.16 3053C1034.3 3053.01 1034.21 3052.99 1034.38 3053C1035.26 3053.11 1035.26 3053.11 1036.72 3053.44L1037.41 3053.62L1038.22 3053.91L1039.25 3054.34C1035.49 3053.09 1035.31 3053.06 1034.16 3053ZM1039.53 3054.47L1041.16 3055.34L1043.16 3056.81L1043.56 3057.22C1041.26 3055.41 1040.87 3055.12 1039.53 3054.47ZM684.625 3054.97L684.031 3055.19L684.375 3055.03L684.625 3054.97ZM683.375 3055.5L680.219 3057.5C680.514 3057.26 680.369 3057.33 680.969 3056.84L681.625 3056.41L682.188 3056.06L682.906 3055.69L683.375 3055.5ZM1017.22 3064.16L1016.59 3066.44L1016.91 3064.84C1017.07 3064.47 1017.08 3064.47 1017.22 3064.16ZM1016.53 3066.81L1016.91 3073.25L1016.78 3072.91L1016.38 3070.12L1016.44 3067.34L1016.53 3066.81ZM1048.66 3071.44L1048.66 3071.59L1048.5 3072.12L1048.66 3071.44ZM1017.03 3073.72L1019.66 3078.94L1018.78 3077.72L1017.62 3075.5L1017.03 3073.72ZM1047.81 3074.72L1047.69 3075.19L1046.38 3077.75L1045.09 3079.53C1046.17 3078.28 1046.26 3078.06 1047.81 3074.72ZM1020.06 3079.5L1021.97 3081.44L1021.34 3080.88L1020.06 3079.5ZM701 3082.28L700.844 3082.53L700.312 3082.88C700.598 3082.64 700.853 3082.41 701 3082.28ZM697.375 3084.75L697.188 3084.88L696.844 3085L697.375 3084.75ZM1031 3085.31C1032.36 3085.39 1032.71 3085.4 1033.09 3085.38C1032.61 3085.4 1032.61 3085.42 1031.09 3085.34C1031.07 3085.34 1031.02 3085.31 1031 3085.31ZM761.375 2727.19C758.963 2727.26 756.498 2727.86 754.188 2729.09C753.826 2729.29 753.289 2729.62 752.562 2730.03C751.42 2730.69 750.156 2731.44 748.812 2732.28C744.977 2734.68 741.119 2737.36 737.469 2740.31C736.227 2741.32 735.034 2742.33 733.875 2743.38C732.098 2744.97 730.324 2746.68 728.562 2748.5C725.499 2751.67 722.619 2755.01 719.906 2758.38C718.974 2759.53 718.118 2760.61 717.344 2761.62C717.095 2761.95 716.558 2762.65 716.531 2762.69C716.201 2762.99 717.561 2761.27 719.312 2759.88C714.918 2763.36 708.444 2775.07 706.062 2784.81C705.295 2787.95 704.742 2791.32 704.375 2794.88C703.684 2801.56 703.677 2808.43 704.031 2814.88C704.115 2816.4 704.184 2817.57 704.25 2818.28C704.315 2818.99 704.437 2819.68 704.594 2820.38L708.188 2836.25C708.417 2837.26 708.738 2838.27 709.156 2839.22L714.875 2852.19C715.398 2853.38 716.053 2854.5 716.844 2855.53L730.188 2872.91C730.837 2873.75 731.572 2874.55 732.375 2875.25L746.25 2887.44C747.194 2888.26 748.236 2888.97 749.344 2889.56L770.125 2900.59C780.819 2906.28 793.723 2898.67 793.969 2886.56L794.812 2846.12C794.826 2845.45 794.789 2844.76 794.719 2844.09C794.719 2844.09 790.807 2806.81 790.781 2806.62L785.781 2770.81C785.691 2770.17 785.573 2769.5 785.406 2768.88L777.531 2739.28C775.518 2731.69 768.612 2726.98 761.375 2727.19ZM752.25 2770.78L753.75 2776.34L758.531 2810.59L762.281 2846.41L762.062 2858.06L755.031 2851.91L743.812 2837.28L739.531 2827.53L736.562 2814.44C736.527 2813.93 736.491 2813.49 736.469 2813.09C736.2 2808.21 736.23 2802.95 736.719 2798.22C736.942 2796.05 737.238 2794.12 737.625 2792.53C738.172 2790.29 739.251 2787.74 740.625 2785.25C741.13 2784.33 741.638 2783.51 742.094 2782.81C742.228 2782.61 742.399 2782.36 742.406 2782.34C740.154 2785.41 741.309 2783.88 739.5 2785.31C741.259 2783.92 742.637 2782.18 742.406 2782.34C742.513 2782.2 742.961 2781.6 743.156 2781.34C743.766 2780.55 744.443 2779.7 745.188 2778.78C747.331 2776.12 749.614 2773.5 751.938 2771.09C752.046 2770.98 752.142 2770.89 752.25 2770.78ZM892.219 2811.97C884.292 2812.19 876.671 2818.12 876.281 2827.56C876.281 2827.56 874.813 2863.31 874.812 2863.5C874.812 2863.5 874.717 2884.75 874.719 2884.88L875.062 2906.06C875.074 2906.73 875.125 2907.4 875.219 2908.06L878.656 2932.19C879.603 2938.86 884.553 2944.26 891.125 2945.75L916.844 2951.59C917.234 2951.68 917.604 2951.75 918 2951.81L942.844 2955.56C943.459 2955.66 944.066 2955.73 944.688 2955.75L976.969 2956.88C977.375 2956.89 977.782 2956.86 978.188 2956.84L1005.62 2955.75C1021.2 2955.12 1027.03 2935.04 1014.22 2926.16L981.969 2903.78L951.594 2874.94L937.344 2859.25C935.904 2857.41 906.313 2819.53 905.312 2818.25C901.823 2813.78 896.975 2811.84 892.219 2811.97ZM907.25 2873.5C908.469 2875.06 911.821 2879.37 911.969 2879.56C912.214 2879.88 912.482 2880.17 912.75 2880.47L928 2897.28C928.272 2897.58 928.55 2897.88 928.844 2898.16L955.625 2923.59L946.625 2923.28L923.5 2919.78L909.25 2916.53L907.531 2904.47L907.188 2884.69L907.25 2873.5ZM987.406 2660.44C979.624 2660.28 971.605 2660.31 963.469 2660.47C957.762 2660.58 952.386 2660.76 947.5 2660.97C945.759 2661.04 941.203 2661.26 940.906 2661.28C938.795 2661.49 938.799 2661.48 936.062 2662.34C933.07 2663.72 933.071 2663.73 930.188 2666.28C927.745 2669.32 927.742 2669.31 926.469 2672.53C925.744 2675.49 925.734 2675.5 925.688 2677.78C926.054 2681.31 926.047 2681.33 926.688 2683.16C927.258 2684.54 927.273 2684.54 927.719 2685.38C928.97 2687.35 928.97 2687.33 929.469 2687.91C930.112 2688.64 930.113 2688.64 930.375 2688.91C930.581 2689.12 930.747 2689.32 930.969 2689.53C931.222 2689.77 943.121 2700.81 947.281 2704.75C959.841 2716.64 972.052 2728.64 983.469 2740.56C986.505 2743.73 989.45 2746.84 992.281 2749.91C994.046 2751.82 995.803 2753.77 997.594 2755.75C1009.75 2769.19 1022 2783.65 1033.69 2798.09C1037.78 2803.15 1041.49 2807.85 1044.78 2812.06C1045.93 2813.53 1048.78 2817.2 1048.81 2817.25C1058.2 2829.59 1077.89 2823.03 1078 2807.53L1078.5 2734.5C1078.5 2734.24 1078.51 2733.98 1078.5 2733.72L1076.53 2685.34C1076.24 2678.2 1071.32 2672.09 1064.41 2670.28C1064.06 2670.19 1063.46 2670.05 1062.62 2669.84C1061.29 2669.52 1059.75 2669.14 1058.03 2668.75C1053.16 2667.65 1047.77 2666.55 1042 2665.53C1031.28 2663.63 1020.48 2662.2 1009.91 2661.44C1002.75 2660.92 995.189 2660.59 987.406 2660.44ZM981.812 2692.94C990.796 2693.03 999.532 2693.26 1007.53 2693.84C1016.9 2694.52 1026.65 2695.81 1036.34 2697.53C1039.31 2698.06 1041.85 2698.63 1044.56 2699.19L1046 2734.25L1045.81 2761.81C1037.85 2752.31 1029.83 2742.9 1021.72 2733.94C1019.85 2731.87 1017.97 2729.87 1016.12 2727.88C1013.16 2724.66 1010.1 2721.4 1006.94 2718.09C998.894 2709.7 990.416 2701.3 981.812 2692.94ZM962.688 92.4062C953.714 92.441 946.465 99.745 946.5 108.719L947.844 459.062C947.879 468.036 955.182 475.285 964.156 475.25C973.13 475.215 980.379 467.911 980.344 458.938L979 108.594C978.965 99.62 971.661 92.3715 962.688 92.4062ZM964.812 644.875C955.839 644.91 948.59 652.214 948.625 661.188L951.688 1450.44C951.722 1459.41 959.026 1466.63 968 1466.59C976.974 1466.56 984.222 1459.26 984.188 1450.28L981.125 661.062C981.09 652.089 973.786 644.84 964.812 644.875ZM968.75 1658.66C959.776 1658.69 952.528 1666 952.562 1674.97L952.594 1681.19C952.629 1690.16 959.901 1697.41 968.875 1697.38C977.849 1697.34 985.097 1690.04 985.062 1681.06L985.062 1674.84C985.028 1665.87 977.724 1658.62 968.75 1658.66ZM970.188 2030.38C961.214 2030.41 953.965 2037.71 954 2046.69L955.875 2532.72C955.91 2541.69 963.214 2548.94 972.188 2548.91C981.161 2548.87 988.41 2541.57 988.375 2532.59L986.5 2046.56C986.465 2037.59 979.161 2030.34 970.188 2030.38ZM973.562 2907.56C964.589 2907.6 957.372 2914.9 957.406 2923.88L957.469 2941.28C957.504 2950.26 964.808 2957.5 973.781 2957.47C982.755 2957.43 990.004 2950.13 989.969 2941.16L989.875 2923.75C989.84 2914.78 982.536 2907.53 973.562 2907.56ZM974.219 3071.72C965.245 3071.75 957.996 3079.06 958.031 3088.03L959.406 3443.59C959.441 3452.57 966.745 3459.82 975.719 3459.78C984.693 3459.75 991.941 3452.44 991.906 3443.47L990.531 3087.91C990.496 3078.93 983.193 3071.68 974.219 3071.72ZM976.312 3610.28C967.339 3610.32 960.09 3617.59 960.125 3626.56L960.156 3634.69C960.191 3643.66 967.495 3650.88 976.469 3650.84C985.443 3650.81 992.66 3643.54 992.625 3634.56L992.594 3626.44C992.559 3617.46 985.286 3610.25 976.312 3610.28ZM977.656 3957.72C968.682 3957.75 961.434 3965.06 961.469 3974.03L963.188 4422.41C963.222 4431.38 970.526 4438.63 979.5 4438.59C988.474 4438.56 995.722 4431.25 995.688 4422.28L993.969 3973.91C993.934 3964.93 986.63 3957.68 977.656 3957.72ZM981.75 5020.28C972.776 5020.32 965.528 5027.62 965.562 5036.59L967.719 5589.09C967.754 5598.07 975.058 5605.32 984.031 5605.28C993.005 5605.25 1000.25 5597.94 1000.22 5588.97L998.062 5036.47C998.028 5027.49 990.724 5020.25 981.75 5020.28Z" fill="#686b6a" opacity="1"/>
</g>
</svg>
